<svg id="Line_Gradient" data-name="Line Gradient" xmlns="http://www.w3.org/2000/svg" xmlns:xlink="http://www.w3.org/1999/xlink" viewBox="0 0 64 64"><defs><style>.cls-1{fill:url(#linear-gradient);}</style><linearGradient id="linear-gradient" x1="3.99269" y1="31.90161" x2="59.99315" y2="31.90161" gradientUnits="userSpaceOnUse"><stop offset="0" stop-color="#ffffff" id="id_105"></stop><stop offset="1" stop-color="#ffffff" id="id_106"></stop></linearGradient></defs><path class="cls-1" d="M57.06348,36.78369a2.92453,2.92453,0,0,0-2.74152,1.9292H44.57422V32.94824l3.95813.04016a2.928,2.928,0,1,0,.00513-2.00012l-3.96326-.04022V25.28027H54.322a2.92375,2.92375,0,1,0,0-1.99989l-9.74773-.00011V21.42188a2.00229,2.00229,0,0,0-2-2H39.08057l-.02979-3.78711h1.62988a1.96719,1.96719,0,0,0,1.96485-1.96436v-4.01a2.92365,2.92365,0,1,0-1.99392.00191l.02907,3.97246H39.05078a1.96644,1.96644,0,0,0-1.96387,1.96484v3.82227h-4.0874V15.44745a2.92345,2.92345,0,1,0-1.99989,0l-.00011,3.97442H27.147V15.59961a1.96685,1.96685,0,0,0-1.96435-1.96484l-1.82813.03564v-4.01a2.92922,2.92922,0,1,0-2,0v4.01a1.96677,1.96677,0,0,0,1.96436,1.96436l1.82812-.03516v3.82227H21.42529a2.002,2.002,0,0,0-2,2v1.85839H9.66382a2.92922,2.92922,0,1,0,0,2h9.76147v5.66761l-3.977.0404a2.9237,2.9237,0,1,0,.00514,2l3.97185-.04018v5.76477H9.66382a2.92372,2.92372,0,1,0,0,1.99989l9.76146.00011V42.5708a2.002,2.002,0,0,0,2,2h3.72943l.0279,3.59766H23.31885a1.96686,1.96686,0,0,0-1.96436,1.96484v4.00952a2.92963,2.92963,0,1,0,1.994-.00189l-.0296-3.97247h1.86377A1.96676,1.96676,0,0,0,27.147,48.2041V44.5708h3.85254v3.785a2.92369,2.92369,0,1,0,1.99989,0l.00011-3.785h4.0874v3.6333a1.96635,1.96635,0,0,0,1.96387,1.96436l1.59473-.03516v4.00952a2.92873,2.92873,0,1,0,2,0V50.1333a1.96728,1.96728,0,0,0-1.96485-1.96484l-1.59375.03564V44.5708h3.48731a2.00229,2.00229,0,0,0,2-2V40.71289H54.322a2.92922,2.92922,0,1,0,2.74152-3.9292Zm-5.78711-5.71631a.92939.92939,0,0,1-.00006,1.8584A.92939.92939,0,0,1,51.27637,31.06738Zm5.78711-7.71631a.92937.92937,0,0,1-.00006,1.8584A.92937.92937,0,0,1,57.06348,23.35107ZM41.64551,5.98926a.92939.92939,0,0,1-.00006,1.85839A.92939.92939,0,0,1,41.64551,5.98926Zm-9.646,5.7876a.92913.92913,0,0,1-.00006,1.8579A.92913.92913,0,0,1,31.99951,11.77686Zm-9.645-5.7876a.92938.92938,0,0,1-.00006,1.85839A.92938.92938,0,0,1,22.35449,5.98926ZM6.92188,25.20947a.92938.92938,0,0,1,0-1.85839A.92938.92938,0,0,1,6.92188,25.20947Zm5.7871,7.71631a.92938.92938,0,0,1,.00006-1.85839A.92938.92938,0,0,1,12.709,32.92578Zm-5.7871,7.71631a.92938.92938,0,0,1,0-1.8584A.92938.92938,0,0,1,6.92188,40.64209ZM22.35449,57.814a.92938.92938,0,0,1,.00006-1.85839A.92938.92938,0,0,1,22.35449,57.814Zm9.645-5.7871a.92939.92939,0,0,1,.00006-1.8584A.92939.92939,0,0,1,31.99951,52.02686Zm9.646,5.7871a.92936.92936,0,0,1,.00006-1.85839A.92936.92936,0,0,1,41.64551,57.814ZM21.42529,42.5708V21.42188H42.57422c-.00032,1.86773.00067,8.51843.00049,10.50354-.00037,2.025.00074,8.7298.00048,10.64538Zm35.63819-1.92871a.92939.92939,0,0,1,.00005-1.8584A.92939.92939,0,0,1,57.06348,40.64209ZM37.08691,24.20557H25.147a1.00019,1.00019,0,0,1-.00007-2H37.08691A1.00019,1.00019,0,0,1,37.08691,24.20557Zm2.91315-.00019a1.00019,1.00019,0,0,1-.00006-2A1.00019,1.00019,0,0,1,40.00006,24.20538Z" id="id_104"></path></svg>