<svg xmlns="http://www.w3.org/2000/svg" xmlns:xlink="http://www.w3.org/1999/xlink" viewBox="0 0 64 64"><defs><linearGradient id="linear-gradient" x1="32" y1="0.268" x2="32" y2="62.8" gradientUnits="userSpaceOnUse"><stop offset="0" stop-color="#ffffff" id="id_138"></stop><stop offset="0.171" stop-color="#ffffff" id="id_139"></stop><stop offset="0.478" stop-color="#ffffff" id="id_140"></stop><stop offset="0.884" stop-color="#ffffff" id="id_141"></stop><stop offset="0.999" stop-color="#ffffff" id="id_142"></stop></linearGradient><linearGradient id="linear-gradient-3" x1="29" y1="0.268" x2="29" y2="62.8" xlink:href="#linear-gradient"></linearGradient><linearGradient id="linear-gradient-4" x1="36" y1="0.268" x2="36" y2="62.8" xlink:href="#linear-gradient"></linearGradient><linearGradient id="linear-gradient-5" x1="56" y1="0.268" x2="56" y2="62.8" xlink:href="#linear-gradient"></linearGradient><linearGradient id="linear-gradient-7" x1="56.5" y1="0.268" x2="56.5" y2="62.8" xlink:href="#linear-gradient"></linearGradient><linearGradient id="linear-gradient-9" x1="43.5" y1="0.268" x2="43.5" y2="62.8" xlink:href="#linear-gradient"></linearGradient><linearGradient id="linear-gradient-10" x1="20.5" y1="0.268" x2="20.5" y2="62.8" xlink:href="#linear-gradient"></linearGradient><linearGradient id="linear-gradient-14" x1="8" y1="0.268" x2="8" y2="62.8" xlink:href="#linear-gradient"></linearGradient><linearGradient id="linear-gradient-16" x1="7.5" y1="0.268" x2="7.5" y2="62.8" xlink:href="#linear-gradient"></linearGradient></defs><title>processor</title><g id="_15-intelligence" data-name="15-intelligence"><path d="M22,43H42a1,1,0,0,0,1-1V22a1,1,0,0,0-1-1H22a1,1,0,0,0-1,1V42A1,1,0,0,0,22,43Zm1-20H41V41H23Z" style="fill:url(#linear-gradient)" id="id_122"></path><path d="M18,17a1,1,0,0,0-1,1V46a1,1,0,0,0,1,1H46a1,1,0,0,0,1-1V18a1,1,0,0,0-1-1ZM45,45H19V19H45Z" style="fill:url(#linear-gradient)" id="id_123"></path><path d="M31,28H27a1,1,0,0,0-1,1v7h2V34h2v2h2V29A1,1,0,0,0,31,28Zm-3,4V30h2v2Z" style="fill:url(#linear-gradient-3)" id="id_124"></path><polygon points="34 30 35 30 35 34 34 34 34 36 38 36 38 34 37 34 37 30 38 30 38 28 34 28 34 30" style="fill:url(#linear-gradient-4)" id="id_125"></polygon><path d="M59,19.816V25H49v2H60a1,1,0,0,0,1-1V19.816a3,3,0,1,0-2,0ZM60,16a1,1,0,1,1-1,1A1,1,0,0,1,60,16Z" style="fill:url(#linear-gradient-5)" id="id_126"></path><path d="M61,44.184V38a1,1,0,0,0-1-1H49v2H59v5.184a3,3,0,1,0,2,0ZM60,48a1,1,0,1,1,1-1A1,1,0,0,1,60,48Z" style="fill:url(#linear-gradient-5)" id="id_127"></path><path d="M61,29a3,3,0,0,0-2.816,2H49v2h9.184A2.995,2.995,0,1,0,61,29Zm0,4a1,1,0,1,1,1-1A1,1,0,0,1,61,33Z" style="fill:url(#linear-gradient-7)" id="id_128"></path><path d="M31,5.816V15h2V5.816a3,3,0,1,0-2,0ZM32,2a1,1,0,1,1-1,1A1,1,0,0,1,32,2Z" style="fill:url(#linear-gradient)" id="id_129"></path><path d="M39,5h5.184a3,3,0,1,0,0-2H38a1,1,0,0,0-1,1V15h2Zm8-2a1,1,0,1,1-1,1A1,1,0,0,1,47,3Z" style="fill:url(#linear-gradient-9)" id="id_130"></path><path d="M17,7a3,3,0,0,0,2.816-2H25V15h2V4a1,1,0,0,0-1-1H19.816A2.995,2.995,0,1,0,17,7Zm0-4a1,1,0,1,1-1,1A1,1,0,0,1,17,3Z" style="fill:url(#linear-gradient-10)" id="id_131"></path><path d="M33,58.184V49H31v9.184a3,3,0,1,0,2,0ZM32,62a1,1,0,1,1,1-1A1,1,0,0,1,32,62Z" style="fill:url(#linear-gradient)" id="id_132"></path><path d="M25,59H19.816a3,3,0,1,0,0,2H26a1,1,0,0,0,1-1V49H25Zm-8,2a1,1,0,1,1,1-1A1,1,0,0,1,17,61Z" style="fill:url(#linear-gradient-10)" id="id_133"></path><path d="M47,57a3,3,0,0,0-2.816,2H39V49H37V60a1,1,0,0,0,1,1h6.184A2.995,2.995,0,1,0,47,57Zm0,4a1,1,0,1,1,1-1A1,1,0,0,1,47,61Z" style="fill:url(#linear-gradient-9)" id="id_134"></path><path d="M5,44.184V39H15V37H4a1,1,0,0,0-1,1v6.184a3,3,0,1,0,2,0ZM4,48a1,1,0,1,1,1-1A1,1,0,0,1,4,48Z" style="fill:url(#linear-gradient-14)" id="id_135"></path><path d="M3,19.816V26a1,1,0,0,0,1,1H15V25H5V19.816a3,3,0,1,0-2,0ZM4,16a1,1,0,1,1-1,1A1,1,0,0,1,4,16Z" style="fill:url(#linear-gradient-14)" id="id_136"></path><path d="M5.816,33H15V31H5.816a3,3,0,1,0,0,2ZM2,32a1,1,0,1,1,1,1A1,1,0,0,1,2,32Z" style="fill:url(#linear-gradient-16)" id="id_137"></path></g></svg>